# xmcd
#
# Track frame offsets: 
#        151
#        13496
#        25233
#        37270
#        49449
#        61942
#        74701
#        86622
#        98511
#        112261
#        125994
#        139471
#        153053
#        166320
#        181042
#        196589
#        210090
#        221433
#
# Disc length: 3148 seconds
#
# Revision: 0
# Processed by: cddbd v1.4PL0 Copyright (c) Steve Scherf et al.
# Submitted via: ExactAudioCopy v0.90b4
#
DISCID=070c4a12
DTITLE=Joe Turner feat. Pete Johnson and Art Tatum - The Best Of The B
DTITLE=oss Of The Blues
DYEAR=1900
DGENRE=Salon
TTITLE0=B and O Blues
TTITLE1=Wine-O-Baby Boogie
TTITLE2=Old Piney Browns's Gone
TTITLE3=Baby, Won't You Marry Me
TTITLE4=Radar Blues
TTITLE5=Telle Me Pretty Baby
TTITLE6=Troubles Blues
TTITLE7=Christmas Date Boogie
TTITLE8=Johnson And Turner Blues
TTITLE9=S.K. Blues
TTITLE10=S.K. Blues
TTITLE11=Watch That Jive
TTITLE12=Wee Baby Blues
TTITLE13=Last Goodbye Blues
TTITLE14=Lucille
TTITLE15=Rock Me, Mama
TTITLE16=Corinne, Corinna
TTITLE17=Lonesome Graveyard
EXTD=
EXTT0=
EXTT1=
EXTT2=
EXTT3=
EXTT4=
EXTT5=
EXTT6=
EXTT7=
EXTT8=
EXTT9=
EXTT10=
EXTT11=
EXTT12=
EXTT13=
EXTT14=
EXTT15=
EXTT16=
EXTT17=
PLAYORDER=
